#!OML:ASF H:\Male1\Project 1\Capture day 1\Session 1\Male1.ASF
:FULLY-SPECIFIED
:DEGREES
299
root 10.4916 15.5587 1.84674 184.941 2.50275 -177.202
lowerback 17.3453 0.441643 -1.92113
upperback 7.50394 1.51521 -2.30098
thorax -1.66846 1.29731 -1.62757
lowerneck -0.378774 9.7658 10.1324
upperneck -18.8332 11.1565 -10.7042
head -4.30745 4.88624 -5.22781
rclavicle 1.70955e-014 -1.82882e-014
rhumerus -47.1445 13.8906 -94.9195
rradius 62.5385
rwrist -38.2347
rhand -31.6068 1.2835
rfingers 7.12502
rthumb -4.8691 -28.6406
lclavicle 1.70955e-014 -1.82882e-014
lhumerus -33.4495 2.81963 78.6672
lradius 43.1831
lwrist 12.2958
lhand -24.9643 16.5038
lfingers 7.12502
lthumb 1.54602 46.4779
rfemur -17.846 7.59802 25.0886
rtibia 31.3478
rfoot -19.8434 -26.6924
rtoes -20.9385
lfemur -17.3621 -11.9258 -15.135
ltibia 32.3112
lfoot -23.342 18.9123
ltoes -13.0325
300
root 10.4893 15.5021 1.87033 185.208 2.53636 -177.251
lowerback 17.1507 0.527072 -1.87501
upperback 7.24837 1.56798 -2.25863
thorax -1.83967 1.29647 -1.61806
lowerneck -0.646529 9.70264 10.0767
upperneck -18.6972 11.0291 -10.7498
head -4.23438 4.82542 -5.21339
rclavicle 4.77083e-015 1.27222e-014
rhumerus -46.9204 13.4412 -94.4964
rradius 62.5422
rwrist -37.4116
rhand -31.3898 2.23051
rfingers 7.12502
rthumb -4.65956 -27.6982
lclavicle 4.77083e-015 1.27222e-014
lhumerus -33.705 1.80573 78.43
lradius 45.3128
lwrist 13.3346
lhand -25.5827 16.2165
lfingers 7.12502
lthumb 0.948766 46.1941
rfemur -17.9418 7.94178 25.0126
rtibia 30.9932
rfoot -20.8873 -26.8466
rtoes -20.3773
lfemur -17.9202 -11.5569 -15.0824
ltibia 32.6386
lfoot -23.0166 18.8401
ltoes -11.6694
301
root 10.487 15.4502 1.89889 185.373 2.55123 -177.288
lowerback 17.0795 0.623673 -1.78458
upperback 7.0567 1.66176 -2.20861
thorax -2.00551 1.32514 -1.63574
lowerneck -0.848487 9.62159 9.9984
upperneck -18.681 10.8673 -10.8231
head -4.21103 4.74609 -5.21318
rclavicle 1.39149e-014 -2.06736e-014
rhumerus -46.4233 12.904 -94.0572
rradius 62.1034
rwrist -36.7823
rhand -31.3169 3.02681
rfingers 7.12502
rthumb -4.58916 -26.9035
lclavicle 1.39149e-014 -2.06736e-014
lhumerus -33.4846 1.04734 78.1911
lradius 46.8415
lwrist 14.07
lhand -26.0005 16.0214
lfingers 7.12502
lthumb 0.545246 46.0004
rfemur -18.2172 7.95445 24.951
rtibia 31.0007
rfoot -21.5822 -26.7156
rtoes -19.8631
lfemur -18.6324 -10.8788 -15.0541
ltibia 33.326
lfoot -22.4498 18.2301
ltoes -10.2563
302
root 10.4838 15.4098 1.92634 185.391 2.58018 -177.307
lowerback 17.1048 0.727976 -1.66527
upperback 6.94639 1.79213 -2.14986
thorax -2.13379 1.38111 -1.66891
lowerneck -0.959205 9.53178 9.94227
upperneck -18.7773 10.6856 -10.9572
head -4.23289 4.65633 -5.24485
rclavicle -2.62396e-014 2.70347e-014
rhumerus -45.6389 12.4029 -93.6542
rradius 61.1547
rwrist -36.4462
rhand -31.4534 3.52525
rfingers 7.12502
rthumb -4.72097 -26.4021
lclavicle -2.62396e-014 2.70347e-014
lhumerus -32.7799 0.613276 77.9867
lradius 47.6142
lwrist 14.5291
lhand -26.4516 15.9183
lfingers 7.12502
lthumb 0.109617 45.898
rfemur -18.4994 7.56726 24.9198
rtibia 31.2196
rfoot -21.8566 -26.2489
rtoes -19.6046
lfemur -19.2417 -10.0542 -15.0508
ltibia 34.076
lfoot -21.859 17.3875
ltoes -9.04014
303
root 10.4816 15.386 1.94883 185.284 2.57599 -177.299
lowerback 17.1436 0.8142 -1.51566
upperback 6.91637 1.92334 -2.08232
thorax -2.18301 1.44486 -1.70883
lowerneck -1.03665 9.45027 9.92427
upperneck -18.8716 10.5196 -11.1168
head -4.25423 4.57526 -5.2919
rclavicle 3.1408e-014 -1.19271e-014
rhumerus -44.5815 12.0199 -93.3225
rradius 59.7213
rwrist -36.4723
rhand -31.7587 3.61991
rfingers 7.12502
rthumb -5.01576 -26.3007
lclavicle 3.1408e-014 -1.19271e-014
lhumerus -31.6285 0.558568 77.8327
lradius 47.5664
lwrist 14.7142
lhand -27.0399 15.9266
lfingers 7.12502
lthumb -0.458667 45.9059
rfemur -18.661 6.96952 24.9311
rtibia 31.4716
rfoot -21.8039 -25.6966
rtoes -19.6824
lfemur -19.5967 -9.29953 -15.041
ltibia 34.6315
lfoot -21.407 16.6315
ltoes -8.31481
304
root 10.4817 15.38 1.96261 185.087 2.50076 -177.315
lowerback 17.1369 0.873124 -1.40216
upperback 6.9255 2.02224 -2.01035
thorax -2.16806 1.49486 -1.71495
lowerneck -1.09668 9.37228 9.93465
upperneck -18.8675 10.3812 -11.2553
head -4.24621 4.51236 -5.33379
rclavicle -7.15625e-015 -2.54444e-014
rhumerus -43.3803 11.803 -93.0675
rradius 57.9328
rwrist -36.8545
rhand -32.103 3.30864
rfingers 7.12502
rthumb -5.34817 -26.6039
lclavicle -7.15625e-015 -2.54444e-014
lhumerus -30.1823 0.914029 77.7508
lradius 46.7639
lwrist 14.6028
lhand -27.7051 16.1262
lfingers 7.12502
lthumb -1.10106 46.1031
rfemur -18.5969 6.36302 24.9275
rtibia 31.5673
rfoot -21.5854 -25.2213
rtoes -19.882
lfemur -19.6221 -8.74173 -15.0695
ltibia 34.8458
lfoot -21.0401 16.1396
ltoes -8.17719
305
root 10.4855 15.3892 1.96649 184.876 2.31697 -177.383
lowerback 17.011 0.901553 -1.36855
upperback 6.92072 2.06375 -1.93301
thorax -2.10883 1.51213 -1.6552
lowerneck -1.14949 9.28812 9.94179
upperneck -18.704 10.2713 -11.3179
head -4.1944 4.47064 -5.3458
rclavicle 1.98785e-014 3.81667e-014
rhumerus -42.1954 11.7546 -92.8755
rradius 55.9874
rwrist -37.4764
rhand -32.3341 2.69088
rfingers 7.12502
rthumb -5.57131 -27.2159
lclavicle 1.98785e-014 3.81667e-014
lhumerus -28.6215 1.63506 77.762
lradius 45.3888
lwrist 14.2534
lhand -28.3635 16.6032
lfingers 7.12502
lthumb -1.737 46.5759
rfemur -18.3047 5.98058 24.8777
rtibia 31.4028
rfoot -21.4259 -24.9979
rtoes -19.8525
lfemur -19.361 -8.42689 -15.1582
ltibia 34.6757
lfoot -20.7345 15.8594
ltoes -8.57214
306
root 10.4931 15.4106 1.96114 184.697 2.00695 -177.45
lowerback 16.7509 0.893299 -1.35185
upperback 6.87181 2.04162 -1.84207
thorax -2.02844 1.49113 -1.55588
lowerneck -1.20289 9.19104 9.93318
upperneck -18.3814 10.1804 -11.2911
head -4.10027 4.44475 -5.32166
rclavicle 3.33958e-014 4.6118e-014
rhumerus -41.1526 11.7924 -92.7289
rradius 54.0815
rwrist -38.1172
rhand -32.346 1.97841
rfingers 7.12502
rthumb -5.58281 -27.928
lclavicle 3.33958e-014 4.6118e-014
lhumerus -27.0902 2.6211 77.8661
lradius 43.6824
lwrist 13.7478
lhand -28.8915 17.3695
lfingers 7.12502
lthumb -2.24695 47.3374
rfemur -17.7968 5.92338 24.8439
rtibia 30.9373
rfoot -21.41 -25.1569
rtoes -19.5167
lfemur -18.9246 -8.38973 -15.2345
ltibia 34.1839
lfoot -20.4177 15.7055
ltoes -8.91269
307
root 10.5033 15.4392 1.94895 184.563 1.61674 -177.593
lowerback 16.3791 0.872102 -1.41723
upperback 6.76774 1.97629 -1.76685
thorax -1.9496 1.44159 -1.41665
lowerneck -1.26357 9.07425 9.8962
upperneck -17.9433 10.088 -11.1855
head -3.97778 4.4225 -5.26444
rclavicle 9.93923e-015 -1.35174e-014
rhumerus -40.3306 11.7765 -92.5948
rradius 52.3633
rwrist -38.4455
rhand -32.0756 1.35634
rfingers 7.12502
rthumb -5.32174 -28.5568
lclavicle 9.93923e-015 -1.35174e-014
lhumerus -25.6926 3.73587 78.0564
lradius 41.9025
lwrist 13.1616
lhand -29.1535 18.3029
lfingers 7.12502
lthumb -2.49998 48.268
rfemur -17.1355 6.23387 24.7387
rtibia 30.2096
rfoot -21.5352 -25.697
rtoes -18.8904
lfemur -18.4044 -8.66366 -15.3816
ltibia 33.4765
lfoot -20.0794 15.7571
ltoes -9.11253
308
root 10.5137 15.4705 1.93108 184.457 1.21318 -177.672
lowerback 15.9406 0.849663 -1.3947
upperback 6.6212 1.91187 -1.6867
thorax -1.87773 1.38902 -1.32144
lowerneck -1.3319 8.93603 9.83934
upperneck -17.4463 9.97673 -11.0444
head -3.84196 4.3932 -5.19133
rclavicle 7.95139e-016 4.29375e-014
rhumerus -39.7592 11.6184 -92.4522
rradius 50.9284
rwrist -38.2446
rhand -31.5697 0.997637
rfingers 7.12502
rthumb -4.83323 -28.9272
lclavicle 7.95139e-016 4.29375e-014
lhumerus -24.5168 4.81743 78.3187
lradius 40.3128
lwrist 12.55
lhand -29.0537 19.223
lfingers 7.12502
lthumb -2.40353 49.1892
rfemur -16.3499 6.80914 24.7063
rtibia 29.2805
rfoot -21.729 -26.4685
rtoes -18.1304
lfemur -17.8385 -9.15225 -15.4601
ltibia 32.6747
lfoot -19.7671 15.9791
ltoes -9.12088
309
root 10.5226 15.5015 1.90946 184.355 0.853757 -177.665
lowerback 15.4645 0.835313 -1.2494
upperback 6.45966 1.87137 -1.60532
thorax -1.7976 1.34831 -1.29807
lowerneck -1.408 8.79001 9.78359
upperneck -16.9361 9.85249 -10.9182
head -3.70115 4.358 -5.12275
rclavicle 2.46493e-014 -2.54444e-014
rhumerus -39.41 11.3359 -92.3043
rradius 49.8319
rwrist -37.5449
rhand -30.9876 0.99224
rfingers 7.12502
rthumb -4.27119 -28.9447
lclavicle 2.46493e-014 -2.54444e-014
lhumerus -23.6043 5.7455 78.6361
lradius 39.1118
lwrist 11.9408
lhand -28.5558 19.9414
lfingers 7.12502
lthumb -1.92269 49.9125
rfemur -15.4837 7.50145 24.7655
rtibia 28.2415
rfoot -21.9563 -27.2926
rtoes -17.3409
lfemur -17.2399 -9.77681 -15.4571
ltibia 31.8651
lfoot -19.5367 16.3359
ltoes -8.89923
